<?xml version="1.0" standalone="no"?>
<!DOCTYPE svg PUBLIC "-//W3C//DTD SVG 1.1//EN" 
  "http://www.w3.org/Graphics/SVG/1.1/DTD/svg11.dtd">
<svg xmlns="http://www.w3.org/2000/svg" version="1.1" width="14ex" height="19ex">
  <defs>
    <marker id="filledArrow" viewBox="0 0 10 10" refX="10" refY="5" 
	    markerUnits="strokeWidth"
	    markerWidth="10" markerHeight="10"
	    orient="auto">
      <path d="M 0 0 L 10 5 L 0 10 z" />
    </marker>
    <marker id="basicArrow" viewBox="0 0 10 10" refX="10" refY="5" 
	    markerUnits="strokeWidth"
	    markerWidth="10" markerHeight="10"
	    orient="auto">
      <path d="M 0 0 L 10 5 L 0 10" fill="none" />
    </marker>
    <marker id="doubleArrow" viewBox="0 0 15 10" refX="15" refY="5" 
	    markerUnits="strokeWidth"
	    markerWidth="15" markerHeight="10"
	    orient="auto">
      <path d="M 0 0 L 10 5 L 0 10" fill="none" />
      <path d="M 5 0 L 15 5 L 5 10" fill="none" />
    </marker>
    <marker id="barArrow" viewBox="0 0 10 10" refX="10" refY="5" 
	    markerUnits="strokeWidth"
	    markerWidth="10" markerHeight="10"
	    orient="auto">
      <path d="M 0 0 L 10 5 L 0 10" fill="none" />
      <path d="M 10 0 L 10 10" fill="none" />
    </marker>
    <marker id="bardoubleArrow" viewBox="0 0 15 10" refX="15" refY="5" 
	    markerUnits="strokeWidth"
	    markerWidth="15" markerHeight="10"
	    orient="auto">
      <path d="M 0 0 L 10 5 L 0 10" fill="none" />
      <path d="M 5 0 L 15 5 L 5 10" fill="none" />
      <path d="M 15 0 L 15 10" fill="none" />
    </marker>
    <marker id="parenthesisArrow" viewBox="0 0 5 10" refX="5" refY="5" 
	    markerUnits="strokeWidth"
	    markerWidth="5" markerHeight="10"
	    orient="auto">
      <path d="M 0 0 Q 10 5 L 0 10" fill="none" />
    </marker>
    <marker id="reversebasicArrow" viewBox="0 0 10 10" refX="10" refY="5" 
	    markerUnits="strokeWidth"
	    markerWidth="10" markerHeight="10"
	    orient="auto">
      <path d="M 10 0 L 0 5 L 10 10" fill="none" />
    </marker>
    <marker id="reversedoubleArrow" viewBox="0 0 15 10" refX="15" refY="5" 
	    markerUnits="strokeWidth"
	    markerWidth="15" markerHeight="10"
	    orient="auto">
      <path d="M 10 0 L 0 5 L 10 10" fill="none" />
      <path d="M 15 0 L 5 5 L 15 10" fill="none" />
    </marker>
    <marker id="reversebarArrow" viewBox="0 0 10 10" refX="10" refY="5" 
	    markerUnits="strokeWidth"
	    markerWidth="10" markerHeight="10"
	    orient="auto">
      <path d="M 10 0 L 0 5 L 10 10" fill="none" />
      <path d="M 0 0 L 0 10" fill="none" />
    </marker>
    <marker id="reversebardoubleArrow" viewBox="0 0 15 10" refX="15" refY="5" 
	    markerUnits="strokeWidth"
	    markerWidth="15" markerHeight="10"
	    orient="auto">
      <path d="M 10 0 L 0 5 L 10 10" fill="none" />
      <path d="M 15 0 L 5 5 L 15 10" fill="none" />
      <path d="M 0 0 L 0 10" fill="none" />
    </marker>
    <marker id="reverseparenthesisArrow" viewBox="0 0 5 10" refX="5" refY="5" 
	    markerUnits="strokeWidth"
	    markerWidth="5" markerHeight="10"
	    orient="auto">
      <path d="M 5 0 Q -5 5 L 5 10" fill="none" />
    </marker>
    <marker id="reverseslashArrow" viewBox="0 0 5 10" refX="2.5" refY="5" 
	    markerUnits="strokeWidth"
	    markerWidth="5" markerHeight="10"
	    orient="auto">
      <path d="M 0 0 L 5 10" fill="none" />
    </marker>
    <marker id="doubleslashArrow" viewBox="0 0 10 10" refX="2.5" refY="5"
	    markerUnits="strokeWidth"
	    markerWidth="10" markerHeight="10"
	    orient="auto">
      <path d="M 0 0 L 5 10" fill="none" />
      <path d="M 5 0 L 10 10" fill="none" />
    </marker>
    <marker id="crossArrow" viewBox="0 0 10 10" refX="5" refY="5"
	    markerUnits="strokeWidth"
	    markerWidth="10" markerHeight="10"
	    orient="auto">
      <path d="M 0 0 L 10 10" fill="none" />
      <path d="M 10 0 L 10 0" fill="none" />
    </marker>
    <marker id="plusArrow" viewBox="0 0 10 10" refX="5" refY="5"
	    markerUnits="strokeWidth"
	    markerWidth="10" markerHeight="10"
	    orient="auto">
      <path d="M 5 0 L 5 10" fill="none" />
      <path d="M 0 5 L 10 5" fill="none" />
    </marker>
    <marker id="vbarArrow" viewBox="0 0 5 10" refX="2.5" refY="5"
	    markerUnits="strokeWidth"
	    markerWidth="5" markerHeight="10"
	    orient="auto">
      <path d="M 2.5 0 L 2.5 10" fill="none" />
    </marker>
    <marker id="doublevbarArrow" viewBox="0 0 10 10" refX="2.5" refY="5"
	    markerUnits="strokeWidth"
	    markerWidth="10" markerHeight="10"
	    orient="auto">
      <path d="M 2.5 0 L 2.5 10" fill="none" />
      <path d="M 7.5 0 L 7.5 10" fill="none" />
    </marker>
    <marker id="circleArrow" viewBox="0 0 10 10" refX="0" refY="5"
	    markerUnits="strokeWidth"
	    markerWidth="10" markerHeight="10"
	    orient="auto">
      <circle cs="5" cy="5" r="5" fill="none" />
    </marker>
  </defs>
</svg>
